<svg xmlns="http://www.w3.org/2000/svg" viewBox="0 0 32 32">
  <path fill="#25D366" d="M16 0C7.163 0 0 7.163 0 16c0 2.822.737 5.48 2.026 7.79L0 32l8.42-1.97A15.94 15.94 0 0 0 16 32c8.837 0 16-7.163 16-16S24.837 0 16 0z"></path>
  <path fill="#FFF" d="M24.07 19.11c-.38-.19-2.24-1.1-2.59-1.23-.35-.13-.6-.19-.86.19-.25.38-.99 1.23-1.21 1.48-.22.25-.44.28-.82.09-.38-.19-1.6-.59-3.05-1.88-1.13-1.01-1.9-2.25-2.12-2.63-.22-.38-.02-.59.17-.78.17-.17.38-.44.57-.66.19-.22.25-.38.38-.63.13-.25.06-.47-.03-.66-.09-.19-.86-2.08-1.18-2.85-.31-.75-.63-.65-.86-.66-.22-.01-.47-.01-.72-.01-.25 0-.66.09-1.01.47-.35.38-1.33 1.3-1.33 3.16 0 1.86 1.36 3.66 1.55 3.91.19.25 2.67 4.08 6.47 5.72.9.39 1.61.62 2.16.79.91.29 1.74.25 2.4.15.73-.11 2.24-.91 2.55-1.8.31-.89.31-1.66.22-1.8-.09-.14-.34-.22-.72-.41z"></path>
</svg>